<svg xmlns="http://www.w3.org/2000/svg" xmlns:xlink="http://www.w3.org/1999/xlink" id="Layer_1" x="0" y="0" version="1.1" viewBox="0 0 174 174" xml:space="preserve" style="enable-background:new 0 0 174 174"><style type="text/css">.st0{fill:#797a7f}</style><rect width="6" height="6" class="st0" shape-rendering="optimizeSpeed"/><rect width="6" height="6" x="6" class="st0" shape-rendering="optimizeSpeed"/><rect width="6" height="6" x="12" class="st0" shape-rendering="optimizeSpeed"/><rect width="6" height="6" x="18" class="st0" shape-rendering="optimizeSpeed"/><rect width="6" height="6" x="24" class="st0" shape-rendering="optimizeSpeed"/><rect width="6" height="6" x="30" class="st0" shape-rendering="optimizeSpeed"/><rect width="6" height="6" x="36" class="st0" shape-rendering="optimizeSpeed"/><rect width="6" height="6" x="48" class="st0" shape-rendering="optimizeSpeed"/><rect width="6" height="6" x="60" class="st0" shape-rendering="optimizeSpeed"/><rect width="6" height="6" x="72" class="st0" shape-rendering="optimizeSpeed"/><rect width="6" height="6" x="78" class="st0" shape-rendering="optimizeSpeed"/><rect width="6" height="6" x="90" class="st0" shape-rendering="optimizeSpeed"/><rect width="6" height="6" x="114" class="st0" shape-rendering="optimizeSpeed"/><rect width="6" height="6" x="120" class="st0" shape-rendering="optimizeSpeed"/><rect width="6" height="6" x="132" class="st0" shape-rendering="optimizeSpeed"/><rect width="6" height="6" x="138" class="st0" shape-rendering="optimizeSpeed"/><rect width="6" height="6" x="144" class="st0" shape-rendering="optimizeSpeed"/><rect width="6" height="6" x="150" class="st0" shape-rendering="optimizeSpeed"/><rect width="6" height="6" x="156" class="st0" shape-rendering="optimizeSpeed"/><rect width="6" height="6" x="162" class="st0" shape-rendering="optimizeSpeed"/><rect width="6" height="6" x="168" class="st0" shape-rendering="optimizeSpeed"/><rect width="6" height="6" y="6" class="st0" shape-rendering="optimizeSpeed"/><rect width="6" height="6" x="36" y="6" class="st0" shape-rendering="optimizeSpeed"/><rect width="6" height="6" x="54" y="6" class="st0" shape-rendering="optimizeSpeed"/><rect width="6" height="6" x="60" y="6" class="st0" shape-rendering="optimizeSpeed"/><rect width="6" height="6" x="66" y="6" class="st0" shape-rendering="optimizeSpeed"/><rect width="6" height="6" x="72" y="6" class="st0" shape-rendering="optimizeSpeed"/><rect width="6" height="6" x="78" y="6" class="st0" shape-rendering="optimizeSpeed"/><rect width="6" height="6" x="96" y="6" class="st0" shape-rendering="optimizeSpeed"/><rect width="6" height="6" x="102" y="6" class="st0" shape-rendering="optimizeSpeed"/><rect width="6" height="6" x="108" y="6" class="st0" shape-rendering="optimizeSpeed"/><rect width="6" height="6" x="132" y="6" class="st0" shape-rendering="optimizeSpeed"/><rect width="6" height="6" x="168" y="6" class="st0" shape-rendering="optimizeSpeed"/><rect width="6" height="6" y="12" class="st0" shape-rendering="optimizeSpeed"/><rect width="6" height="6" x="12" y="12" class="st0" shape-rendering="optimizeSpeed"/><rect width="6" height="6" x="18" y="12" class="st0" shape-rendering="optimizeSpeed"/><rect width="6" height="6" x="24" y="12" class="st0" shape-rendering="optimizeSpeed"/><rect width="6" height="6" x="36" y="12" class="st0" shape-rendering="optimizeSpeed"/><rect width="6" height="6" x="48" y="12" class="st0" shape-rendering="optimizeSpeed"/><rect width="6" height="6" x="54" y="12" class="st0" shape-rendering="optimizeSpeed"/><rect width="6" height="6" x="60" y="12" class="st0" shape-rendering="optimizeSpeed"/><rect width="6" height="6" x="90" y="12" class="st0" shape-rendering="optimizeSpeed"/><rect width="6" height="6" x="132" y="12" class="st0" shape-rendering="optimizeSpeed"/><rect width="6" height="6" x="144" y="12" class="st0" shape-rendering="optimizeSpeed"/><rect width="6" height="6" x="150" y="12" class="st0" shape-rendering="optimizeSpeed"/><rect width="6" height="6" x="156" y="12" class="st0" shape-rendering="optimizeSpeed"/><rect width="6" height="6" x="168" y="12" class="st0" shape-rendering="optimizeSpeed"/><rect width="6" height="6" y="18" class="st0" shape-rendering="optimizeSpeed"/><rect width="6" height="6" x="12" y="18" class="st0" shape-rendering="optimizeSpeed"/><rect width="6" height="6" x="18" y="18" class="st0" shape-rendering="optimizeSpeed"/><rect width="6" height="6" x="24" y="18" class="st0" shape-rendering="optimizeSpeed"/><rect width="6" height="6" x="36" y="18" class="st0" shape-rendering="optimizeSpeed"/><rect width="6" height="6" x="48" y="18" class="st0" shape-rendering="optimizeSpeed"/><rect width="6" height="6" x="54" y="18" class="st0" shape-rendering="optimizeSpeed"/><rect width="6" height="6" x="60" y="18" class="st0" shape-rendering="optimizeSpeed"/><rect width="6" height="6" x="72" y="18" class="st0" shape-rendering="optimizeSpeed"/><rect width="6" height="6" x="84" y="18" class="st0" shape-rendering="optimizeSpeed"/><rect width="6" height="6" x="102" y="18" class="st0" shape-rendering="optimizeSpeed"/><rect width="6" height="6" x="120" y="18" class="st0" shape-rendering="optimizeSpeed"/><rect width="6" height="6" x="132" y="18" class="st0" shape-rendering="optimizeSpeed"/><rect width="6" height="6" x="144" y="18" class="st0" shape-rendering="optimizeSpeed"/><rect width="6" height="6" x="150" y="18" class="st0" shape-rendering="optimizeSpeed"/><rect width="6" height="6" x="156" y="18" class="st0" shape-rendering="optimizeSpeed"/><rect width="6" height="6" x="168" y="18" class="st0" shape-rendering="optimizeSpeed"/><rect width="6" height="6" y="24" class="st0" shape-rendering="optimizeSpeed"/><rect width="6" height="6" x="12" y="24" class="st0" shape-rendering="optimizeSpeed"/><rect width="6" height="6" x="18" y="24" class="st0" shape-rendering="optimizeSpeed"/><rect width="6" height="6" x="24" y="24" class="st0" shape-rendering="optimizeSpeed"/><rect width="6" height="6" x="36" y="24" class="st0" shape-rendering="optimizeSpeed"/><rect width="6" height="6" x="48" y="24" class="st0" shape-rendering="optimizeSpeed"/><rect width="6" height="6" x="66" y="24" class="st0" shape-rendering="optimizeSpeed"/><rect width="6" height="6" x="72" y="24" class="st0" shape-rendering="optimizeSpeed"/><rect width="6" height="6" x="84" y="24" class="st0" shape-rendering="optimizeSpeed"/><rect width="6" height="6" x="90" y="24" class="st0" shape-rendering="optimizeSpeed"/><rect width="6" height="6" x="102" y="24" class="st0" shape-rendering="optimizeSpeed"/><rect width="6" height="6" x="108" y="24" class="st0" shape-rendering="optimizeSpeed"/><rect width="6" height="6" x="114" y="24" class="st0" shape-rendering="optimizeSpeed"/><rect width="6" height="6" x="132" y="24" class="st0" shape-rendering="optimizeSpeed"/><rect width="6" height="6" x="144" y="24" class="st0" shape-rendering="optimizeSpeed"/><rect width="6" height="6" x="150" y="24" class="st0" shape-rendering="optimizeSpeed"/><rect width="6" height="6" x="156" y="24" class="st0" shape-rendering="optimizeSpeed"/><rect width="6" height="6" x="168" y="24" class="st0" shape-rendering="optimizeSpeed"/><rect width="6" height="6" y="30" class="st0" shape-rendering="optimizeSpeed"/><rect width="6" height="6" x="36" y="30" class="st0" shape-rendering="optimizeSpeed"/><rect width="6" height="6" x="60" y="30" class="st0" shape-rendering="optimizeSpeed"/><rect width="6" height="6" x="66" y="30" class="st0" shape-rendering="optimizeSpeed"/><rect width="6" height="6" x="78" y="30" class="st0" shape-rendering="optimizeSpeed"/><rect width="6" height="6" x="96" y="30" class="st0" shape-rendering="optimizeSpeed"/><rect width="6" height="6" x="108" y="30" class="st0" shape-rendering="optimizeSpeed"/><rect width="6" height="6" x="114" y="30" class="st0" shape-rendering="optimizeSpeed"/><rect width="6" height="6" x="132" y="30" class="st0" shape-rendering="optimizeSpeed"/><rect width="6" height="6" x="168" y="30" class="st0" shape-rendering="optimizeSpeed"/><rect width="6" height="6" y="36" class="st0" shape-rendering="optimizeSpeed"/><rect width="6" height="6" x="6" y="36" class="st0" shape-rendering="optimizeSpeed"/><rect width="6" height="6" x="12" y="36" class="st0" shape-rendering="optimizeSpeed"/><rect width="6" height="6" x="18" y="36" class="st0" shape-rendering="optimizeSpeed"/><rect width="6" height="6" x="24" y="36" class="st0" shape-rendering="optimizeSpeed"/><rect width="6" height="6" x="30" y="36" class="st0" shape-rendering="optimizeSpeed"/><rect width="6" height="6" x="36" y="36" class="st0" shape-rendering="optimizeSpeed"/><rect width="6" height="6" x="48" y="36" class="st0" shape-rendering="optimizeSpeed"/><rect width="6" height="6" x="60" y="36" class="st0" shape-rendering="optimizeSpeed"/><rect width="6" height="6" x="72" y="36" class="st0" shape-rendering="optimizeSpeed"/><rect width="6" height="6" x="84" y="36" class="st0" shape-rendering="optimizeSpeed"/><rect width="6" height="6" x="96" y="36" class="st0" shape-rendering="optimizeSpeed"/><rect width="6" height="6" x="108" y="36" class="st0" shape-rendering="optimizeSpeed"/><rect width="6" height="6" x="120" y="36" class="st0" shape-rendering="optimizeSpeed"/><rect width="6" height="6" x="132" y="36" class="st0" shape-rendering="optimizeSpeed"/><rect width="6" height="6" x="138" y="36" class="st0" shape-rendering="optimizeSpeed"/><rect width="6" height="6" x="144" y="36" class="st0" shape-rendering="optimizeSpeed"/><rect width="6" height="6" x="150" y="36" class="st0" shape-rendering="optimizeSpeed"/><rect width="6" height="6" x="156" y="36" class="st0" shape-rendering="optimizeSpeed"/><rect width="6" height="6" x="162" y="36" class="st0" shape-rendering="optimizeSpeed"/><rect width="6" height="6" x="168" y="36" class="st0" shape-rendering="optimizeSpeed"/><rect width="6" height="6" x="60" y="42" class="st0" shape-rendering="optimizeSpeed"/><rect width="6" height="6" x="72" y="42" class="st0" shape-rendering="optimizeSpeed"/><rect width="6" height="6" x="102" y="42" class="st0" shape-rendering="optimizeSpeed"/><rect width="6" height="6" x="108" y="42" class="st0" shape-rendering="optimizeSpeed"/><rect width="6" height="6" x="114" y="42" class="st0" shape-rendering="optimizeSpeed"/><rect width="6" height="6" y="48" class="st0" shape-rendering="optimizeSpeed"/><rect width="6" height="6" x="6" y="48" class="st0" shape-rendering="optimizeSpeed"/><rect width="6" height="6" x="12" y="48" class="st0" shape-rendering="optimizeSpeed"/><rect width="6" height="6" x="18" y="48" class="st0" shape-rendering="optimizeSpeed"/><rect width="6" height="6" x="36" y="48" class="st0" shape-rendering="optimizeSpeed"/><rect width="6" height="6" x="48" y="48" class="st0" shape-rendering="optimizeSpeed"/><rect width="6" height="6" x="60" y="48" class="st0" shape-rendering="optimizeSpeed"/><rect width="6" height="6" x="66" y="48" class="st0" shape-rendering="optimizeSpeed"/><rect width="6" height="6" x="72" y="48" class="st0" shape-rendering="optimizeSpeed"/><rect width="6" height="6" x="78" y="48" class="st0" shape-rendering="optimizeSpeed"/><rect width="6" height="6" x="90" y="48" class="st0" shape-rendering="optimizeSpeed"/><rect width="6" height="6" x="102" y="48" class="st0" shape-rendering="optimizeSpeed"/><rect width="6" height="6" x="108" y="48" class="st0" shape-rendering="optimizeSpeed"/><rect width="6" height="6" x="126" y="48" class="st0" shape-rendering="optimizeSpeed"/><rect width="6" height="6" x="144" y="48" class="st0" shape-rendering="optimizeSpeed"/><rect width="6" height="6" x="150" y="48" class="st0" shape-rendering="optimizeSpeed"/><rect width="6" height="6" x="156" y="48" class="st0" shape-rendering="optimizeSpeed"/><rect width="6" height="6" x="168" y="48" class="st0" shape-rendering="optimizeSpeed"/><rect width="6" height="6" y="54" class="st0" shape-rendering="optimizeSpeed"/><rect width="6" height="6" x="12" y="54" class="st0" shape-rendering="optimizeSpeed"/><rect width="6" height="6" x="18" y="54" class="st0" shape-rendering="optimizeSpeed"/><rect width="6" height="6" x="30" y="54" class="st0" shape-rendering="optimizeSpeed"/><rect width="6" height="6" x="42" y="54" class="st0" shape-rendering="optimizeSpeed"/><rect width="6" height="6" x="48" y="54" class="st0" shape-rendering="optimizeSpeed"/><rect width="6" height="6" x="60" y="54" class="st0" shape-rendering="optimizeSpeed"/><rect width="6" height="6" x="72" y="54" class="st0" shape-rendering="optimizeSpeed"/><rect width="6" height="6" x="78" y="54" class="st0" shape-rendering="optimizeSpeed"/><rect width="6" height="6" x="84" y="54" class="st0" shape-rendering="optimizeSpeed"/><rect width="6" height="6" x="96" y="54" class="st0" shape-rendering="optimizeSpeed"/><rect width="6" height="6" x="108" y="54" class="st0" shape-rendering="optimizeSpeed"/><rect width="6" height="6" x="114" y="54" class="st0" shape-rendering="optimizeSpeed"/><rect width="6" height="6" x="126" y="54" class="st0" shape-rendering="optimizeSpeed"/><rect width="6" height="6" x="132" y="54" class="st0" shape-rendering="optimizeSpeed"/><rect width="6" height="6" x="144" y="54" class="st0" shape-rendering="optimizeSpeed"/><rect width="6" height="6" x="168" y="54" class="st0" shape-rendering="optimizeSpeed"/><rect width="6" height="6" x="6" y="60" class="st0" shape-rendering="optimizeSpeed"/><rect width="6" height="6" x="24" y="60" class="st0" shape-rendering="optimizeSpeed"/><rect width="6" height="6" x="30" y="60" class="st0" shape-rendering="optimizeSpeed"/><rect width="6" height="6" x="36" y="60" class="st0" shape-rendering="optimizeSpeed"/><rect width="6" height="6" x="42" y="60" class="st0" shape-rendering="optimizeSpeed"/><rect width="6" height="6" x="54" y="60" class="st0" shape-rendering="optimizeSpeed"/><rect width="6" height="6" x="60" y="60" class="st0" shape-rendering="optimizeSpeed"/><rect width="6" height="6" x="66" y="60" class="st0" shape-rendering="optimizeSpeed"/><rect width="6" height="6" x="72" y="60" class="st0" shape-rendering="optimizeSpeed"/><rect width="6" height="6" x="78" y="60" class="st0" shape-rendering="optimizeSpeed"/><rect width="6" height="6" x="96" y="60" class="st0" shape-rendering="optimizeSpeed"/><rect width="6" height="6" x="102" y="60" class="st0" shape-rendering="optimizeSpeed"/><rect width="6" height="6" x="108" y="60" class="st0" shape-rendering="optimizeSpeed"/><rect width="6" height="6" x="120" y="60" class="st0" shape-rendering="optimizeSpeed"/><rect width="6" height="6" x="126" y="60" class="st0" shape-rendering="optimizeSpeed"/><rect width="6" height="6" x="132" y="60" class="st0" shape-rendering="optimizeSpeed"/><rect width="6" height="6" x="144" y="60" class="st0" shape-rendering="optimizeSpeed"/><rect width="6" height="6" x="156" y="60" class="st0" shape-rendering="optimizeSpeed"/><rect width="6" height="6" x="162" y="60" class="st0" shape-rendering="optimizeSpeed"/><rect width="6" height="6" x="12" y="66" class="st0" shape-rendering="optimizeSpeed"/><rect width="6" height="6" x="18" y="66" class="st0" shape-rendering="optimizeSpeed"/><rect width="6" height="6" x="54" y="66" class="st0" shape-rendering="optimizeSpeed"/><rect width="6" height="6" x="60" y="66" class="st0" shape-rendering="optimizeSpeed"/><rect width="6" height="6" x="114" y="66" class="st0" shape-rendering="optimizeSpeed"/><rect width="6" height="6" x="138" y="66" class="st0" shape-rendering="optimizeSpeed"/><rect width="6" height="6" x="144" y="66" class="st0" shape-rendering="optimizeSpeed"/><rect width="6" height="6" x="168" y="66" class="st0" shape-rendering="optimizeSpeed"/><rect width="6" height="6" x="6" y="72" class="st0" shape-rendering="optimizeSpeed"/><rect width="6" height="6" x="12" y="72" class="st0" shape-rendering="optimizeSpeed"/><rect width="6" height="6" x="18" y="72" class="st0" shape-rendering="optimizeSpeed"/><rect width="6" height="6" x="30" y="72" class="st0" shape-rendering="optimizeSpeed"/><rect width="6" height="6" x="36" y="72" class="st0" shape-rendering="optimizeSpeed"/><rect width="6" height="6" x="48" y="72" class="st0" shape-rendering="optimizeSpeed"/><rect width="6" height="6" x="54" y="72" class="st0" shape-rendering="optimizeSpeed"/><rect width="6" height="6" x="60" y="72" class="st0" shape-rendering="optimizeSpeed"/><rect width="6" height="6" x="72" y="72" class="st0" shape-rendering="optimizeSpeed"/><rect width="6" height="6" x="84" y="72" class="st0" shape-rendering="optimizeSpeed"/><rect width="6" height="6" x="90" y="72" class="st0" shape-rendering="optimizeSpeed"/><rect width="6" height="6" x="102" y="72" class="st0" shape-rendering="optimizeSpeed"/><rect width="6" height="6" x="114" y="72" class="st0" shape-rendering="optimizeSpeed"/><rect width="6" height="6" x="120" y="72" class="st0" shape-rendering="optimizeSpeed"/><rect width="6" height="6" x="150" y="72" class="st0" shape-rendering="optimizeSpeed"/><rect width="6" height="6" x="156" y="72" class="st0" shape-rendering="optimizeSpeed"/><rect width="6" height="6" y="78" class="st0" shape-rendering="optimizeSpeed"/><rect width="6" height="6" x="24" y="78" class="st0" shape-rendering="optimizeSpeed"/><rect width="6" height="6" x="30" y="78" class="st0" shape-rendering="optimizeSpeed"/><rect width="6" height="6" x="42" y="78" class="st0" shape-rendering="optimizeSpeed"/><rect width="6" height="6" x="48" y="78" class="st0" shape-rendering="optimizeSpeed"/><rect width="6" height="6" x="66" y="78" class="st0" shape-rendering="optimizeSpeed"/><rect width="6" height="6" x="72" y="78" class="st0" shape-rendering="optimizeSpeed"/><rect width="6" height="6" x="84" y="78" class="st0" shape-rendering="optimizeSpeed"/><rect width="6" height="6" x="90" y="78" class="st0" shape-rendering="optimizeSpeed"/><rect width="6" height="6" x="96" y="78" class="st0" shape-rendering="optimizeSpeed"/><rect width="6" height="6" x="114" y="78" class="st0" shape-rendering="optimizeSpeed"/><rect width="6" height="6" x="132" y="78" class="st0" shape-rendering="optimizeSpeed"/><rect width="6" height="6" x="156" y="78" class="st0" shape-rendering="optimizeSpeed"/><rect width="6" height="6" x="162" y="78" class="st0" shape-rendering="optimizeSpeed"/><rect width="6" height="6" x="168" y="78" class="st0" shape-rendering="optimizeSpeed"/><rect width="6" height="6" y="84" class="st0" shape-rendering="optimizeSpeed"/><rect width="6" height="6" x="18" y="84" class="st0" shape-rendering="optimizeSpeed"/><rect width="6" height="6" x="24" y="84" class="st0" shape-rendering="optimizeSpeed"/><rect width="6" height="6" x="30" y="84" class="st0" shape-rendering="optimizeSpeed"/><rect width="6" height="6" x="36" y="84" class="st0" shape-rendering="optimizeSpeed"/><rect width="6" height="6" x="42" y="84" class="st0" shape-rendering="optimizeSpeed"/><rect width="6" height="6" x="66" y="84" class="st0" shape-rendering="optimizeSpeed"/><rect width="6" height="6" x="78" y="84" class="st0" shape-rendering="optimizeSpeed"/><rect width="6" height="6" x="96" y="84" class="st0" shape-rendering="optimizeSpeed"/><rect width="6" height="6" x="114" y="84" class="st0" shape-rendering="optimizeSpeed"/><rect width="6" height="6" x="120" y="84" class="st0" shape-rendering="optimizeSpeed"/><rect width="6" height="6" x="132" y="84" class="st0" shape-rendering="optimizeSpeed"/><rect width="6" height="6" x="138" y="84" class="st0" shape-rendering="optimizeSpeed"/><rect width="6" height="6" x="156" y="84" class="st0" shape-rendering="optimizeSpeed"/><rect width="6" height="6" x="162" y="84" class="st0" shape-rendering="optimizeSpeed"/><rect width="6" height="6" x="168" y="84" class="st0" shape-rendering="optimizeSpeed"/><rect width="6" height="6" y="90" class="st0" shape-rendering="optimizeSpeed"/><rect width="6" height="6" x="6" y="90" class="st0" shape-rendering="optimizeSpeed"/><rect width="6" height="6" x="12" y="90" class="st0" shape-rendering="optimizeSpeed"/><rect width="6" height="6" x="18" y="90" class="st0" shape-rendering="optimizeSpeed"/><rect width="6" height="6" x="30" y="90" class="st0" shape-rendering="optimizeSpeed"/><rect width="6" height="6" x="42" y="90" class="st0" shape-rendering="optimizeSpeed"/><rect width="6" height="6" x="66" y="90" class="st0" shape-rendering="optimizeSpeed"/><rect width="6" height="6" x="84" y="90" class="st0" shape-rendering="optimizeSpeed"/><rect width="6" height="6" x="90" y="90" class="st0" shape-rendering="optimizeSpeed"/><rect width="6" height="6" x="96" y="90" class="st0" shape-rendering="optimizeSpeed"/><rect width="6" height="6" x="120" y="90" class="st0" shape-rendering="optimizeSpeed"/><rect width="6" height="6" x="132" y="90" class="st0" shape-rendering="optimizeSpeed"/><rect width="6" height="6" x="138" y="90" class="st0" shape-rendering="optimizeSpeed"/><rect width="6" height="6" x="162" y="90" class="st0" shape-rendering="optimizeSpeed"/><rect width="6" height="6" y="96" class="st0" shape-rendering="optimizeSpeed"/><rect width="6" height="6" x="6" y="96" class="st0" shape-rendering="optimizeSpeed"/><rect width="6" height="6" x="12" y="96" class="st0" shape-rendering="optimizeSpeed"/><rect width="6" height="6" x="18" y="96" class="st0" shape-rendering="optimizeSpeed"/><rect width="6" height="6" x="30" y="96" class="st0" shape-rendering="optimizeSpeed"/><rect width="6" height="6" x="36" y="96" class="st0" shape-rendering="optimizeSpeed"/><rect width="6" height="6" x="42" y="96" class="st0" shape-rendering="optimizeSpeed"/><rect width="6" height="6" x="54" y="96" class="st0" shape-rendering="optimizeSpeed"/><rect width="6" height="6" x="60" y="96" class="st0" shape-rendering="optimizeSpeed"/><rect width="6" height="6" x="72" y="96" class="st0" shape-rendering="optimizeSpeed"/><rect width="6" height="6" x="84" y="96" class="st0" shape-rendering="optimizeSpeed"/><rect width="6" height="6" x="96" y="96" class="st0" shape-rendering="optimizeSpeed"/><rect width="6" height="6" x="108" y="96" class="st0" shape-rendering="optimizeSpeed"/><rect width="6" height="6" x="120" y="96" class="st0" shape-rendering="optimizeSpeed"/><rect width="6" height="6" x="126" y="96" class="st0" shape-rendering="optimizeSpeed"/><rect width="6" height="6" x="138" y="96" class="st0" shape-rendering="optimizeSpeed"/><rect width="6" height="6" x="144" y="96" class="st0" shape-rendering="optimizeSpeed"/><rect width="6" height="6" x="150" y="96" class="st0" shape-rendering="optimizeSpeed"/><rect width="6" height="6" x="162" y="96" class="st0" shape-rendering="optimizeSpeed"/><rect width="6" height="6" x="6" y="102" class="st0" shape-rendering="optimizeSpeed"/><rect width="6" height="6" x="24" y="102" class="st0" shape-rendering="optimizeSpeed"/><rect width="6" height="6" x="30" y="102" class="st0" shape-rendering="optimizeSpeed"/><rect width="6" height="6" x="42" y="102" class="st0" shape-rendering="optimizeSpeed"/><rect width="6" height="6" x="84" y="102" class="st0" shape-rendering="optimizeSpeed"/><rect width="6" height="6" x="90" y="102" class="st0" shape-rendering="optimizeSpeed"/><rect width="6" height="6" x="102" y="102" class="st0" shape-rendering="optimizeSpeed"/><rect width="6" height="6" x="120" y="102" class="st0" shape-rendering="optimizeSpeed"/><rect width="6" height="6" x="126" y="102" class="st0" shape-rendering="optimizeSpeed"/><rect width="6" height="6" x="138" y="102" class="st0" shape-rendering="optimizeSpeed"/><rect width="6" height="6" x="150" y="102" class="st0" shape-rendering="optimizeSpeed"/><rect width="6" height="6" x="156" y="102" class="st0" shape-rendering="optimizeSpeed"/><rect width="6" height="6" x="162" y="102" class="st0" shape-rendering="optimizeSpeed"/><rect width="6" height="6" y="108" class="st0" shape-rendering="optimizeSpeed"/><rect width="6" height="6" x="18" y="108" class="st0" shape-rendering="optimizeSpeed"/><rect width="6" height="6" x="24" y="108" class="st0" shape-rendering="optimizeSpeed"/><rect width="6" height="6" x="30" y="108" class="st0" shape-rendering="optimizeSpeed"/><rect width="6" height="6" x="36" y="108" class="st0" shape-rendering="optimizeSpeed"/><rect width="6" height="6" x="42" y="108" class="st0" shape-rendering="optimizeSpeed"/><rect width="6" height="6" x="54" y="108" class="st0" shape-rendering="optimizeSpeed"/><rect width="6" height="6" x="78" y="108" class="st0" shape-rendering="optimizeSpeed"/><rect width="6" height="6" x="84" y="108" class="st0" shape-rendering="optimizeSpeed"/><rect width="6" height="6" x="90" y="108" class="st0" shape-rendering="optimizeSpeed"/><rect width="6" height="6" x="96" y="108" class="st0" shape-rendering="optimizeSpeed"/><rect width="6" height="6" x="102" y="108" class="st0" shape-rendering="optimizeSpeed"/><rect width="6" height="6" x="126" y="108" class="st0" shape-rendering="optimizeSpeed"/><rect width="6" height="6" x="138" y="108" class="st0" shape-rendering="optimizeSpeed"/><rect width="6" height="6" x="144" y="108" class="st0" shape-rendering="optimizeSpeed"/><rect width="6" height="6" x="156" y="108" class="st0" shape-rendering="optimizeSpeed"/><rect width="6" height="6" x="12" y="114" class="st0" shape-rendering="optimizeSpeed"/><rect width="6" height="6" x="18" y="114" class="st0" shape-rendering="optimizeSpeed"/><rect width="6" height="6" x="24" y="114" class="st0" shape-rendering="optimizeSpeed"/><rect width="6" height="6" x="30" y="114" class="st0" shape-rendering="optimizeSpeed"/><rect width="6" height="6" x="42" y="114" class="st0" shape-rendering="optimizeSpeed"/><rect width="6" height="6" x="66" y="114" class="st0" shape-rendering="optimizeSpeed"/><rect width="6" height="6" x="78" y="114" class="st0" shape-rendering="optimizeSpeed"/><rect width="6" height="6" x="84" y="114" class="st0" shape-rendering="optimizeSpeed"/><rect width="6" height="6" x="102" y="114" class="st0" shape-rendering="optimizeSpeed"/><rect width="6" height="6" x="108" y="114" class="st0" shape-rendering="optimizeSpeed"/><rect width="6" height="6" x="132" y="114" class="st0" shape-rendering="optimizeSpeed"/><rect width="6" height="6" x="156" y="114" class="st0" shape-rendering="optimizeSpeed"/><rect width="6" height="6" x="6" y="120" class="st0" shape-rendering="optimizeSpeed"/><rect width="6" height="6" x="30" y="120" class="st0" shape-rendering="optimizeSpeed"/><rect width="6" height="6" x="36" y="120" class="st0" shape-rendering="optimizeSpeed"/><rect width="6" height="6" x="48" y="120" class="st0" shape-rendering="optimizeSpeed"/><rect width="6" height="6" x="54" y="120" class="st0" shape-rendering="optimizeSpeed"/><rect width="6" height="6" x="78" y="120" class="st0" shape-rendering="optimizeSpeed"/><rect width="6" height="6" x="84" y="120" class="st0" shape-rendering="optimizeSpeed"/><rect width="6" height="6" x="96" y="120" class="st0" shape-rendering="optimizeSpeed"/><rect width="6" height="6" x="102" y="120" class="st0" shape-rendering="optimizeSpeed"/><rect width="6" height="6" x="114" y="120" class="st0" shape-rendering="optimizeSpeed"/><rect width="6" height="6" x="120" y="120" class="st0" shape-rendering="optimizeSpeed"/><rect width="6" height="6" x="126" y="120" class="st0" shape-rendering="optimizeSpeed"/><rect width="6" height="6" x="132" y="120" class="st0" shape-rendering="optimizeSpeed"/><rect width="6" height="6" x="138" y="120" class="st0" shape-rendering="optimizeSpeed"/><rect width="6" height="6" x="144" y="120" class="st0" shape-rendering="optimizeSpeed"/><rect width="6" height="6" x="150" y="120" class="st0" shape-rendering="optimizeSpeed"/><rect width="6" height="6" x="156" y="120" class="st0" shape-rendering="optimizeSpeed"/><rect width="6" height="6" x="48" y="126" class="st0" shape-rendering="optimizeSpeed"/><rect width="6" height="6" x="96" y="126" class="st0" shape-rendering="optimizeSpeed"/><rect width="6" height="6" x="102" y="126" class="st0" shape-rendering="optimizeSpeed"/><rect width="6" height="6" x="108" y="126" class="st0" shape-rendering="optimizeSpeed"/><rect width="6" height="6" x="114" y="126" class="st0" shape-rendering="optimizeSpeed"/><rect width="6" height="6" x="120" y="126" class="st0" shape-rendering="optimizeSpeed"/><rect width="6" height="6" x="144" y="126" class="st0" shape-rendering="optimizeSpeed"/><rect width="6" height="6" x="150" y="126" class="st0" shape-rendering="optimizeSpeed"/><rect width="6" height="6" x="156" y="126" class="st0" shape-rendering="optimizeSpeed"/><rect width="6" height="6" x="162" y="126" class="st0" shape-rendering="optimizeSpeed"/><rect width="6" height="6" x="168" y="126" class="st0" shape-rendering="optimizeSpeed"/><rect width="6" height="6" y="132" class="st0" shape-rendering="optimizeSpeed"/><rect width="6" height="6" x="6" y="132" class="st0" shape-rendering="optimizeSpeed"/><rect width="6" height="6" x="12" y="132" class="st0" shape-rendering="optimizeSpeed"/><rect width="6" height="6" x="18" y="132" class="st0" shape-rendering="optimizeSpeed"/><rect width="6" height="6" x="24" y="132" class="st0" shape-rendering="optimizeSpeed"/><rect width="6" height="6" x="30" y="132" class="st0" shape-rendering="optimizeSpeed"/><rect width="6" height="6" x="36" y="132" class="st0" shape-rendering="optimizeSpeed"/><rect width="6" height="6" x="54" y="132" class="st0" shape-rendering="optimizeSpeed"/><rect width="6" height="6" x="84" y="132" class="st0" shape-rendering="optimizeSpeed"/><rect width="6" height="6" x="96" y="132" class="st0" shape-rendering="optimizeSpeed"/><rect width="6" height="6" x="108" y="132" class="st0" shape-rendering="optimizeSpeed"/><rect width="6" height="6" x="114" y="132" class="st0" shape-rendering="optimizeSpeed"/><rect width="6" height="6" x="120" y="132" class="st0" shape-rendering="optimizeSpeed"/><rect width="6" height="6" x="132" y="132" class="st0" shape-rendering="optimizeSpeed"/><rect width="6" height="6" x="144" y="132" class="st0" shape-rendering="optimizeSpeed"/><rect width="6" height="6" x="150" y="132" class="st0" shape-rendering="optimizeSpeed"/><rect width="6" height="6" x="162" y="132" class="st0" shape-rendering="optimizeSpeed"/><rect width="6" height="6" y="138" class="st0" shape-rendering="optimizeSpeed"/><rect width="6" height="6" x="36" y="138" class="st0" shape-rendering="optimizeSpeed"/><rect width="6" height="6" x="54" y="138" class="st0" shape-rendering="optimizeSpeed"/><rect width="6" height="6" x="66" y="138" class="st0" shape-rendering="optimizeSpeed"/><rect width="6" height="6" x="72" y="138" class="st0" shape-rendering="optimizeSpeed"/><rect width="6" height="6" x="78" y="138" class="st0" shape-rendering="optimizeSpeed"/><rect width="6" height="6" x="84" y="138" class="st0" shape-rendering="optimizeSpeed"/><rect width="6" height="6" x="108" y="138" class="st0" shape-rendering="optimizeSpeed"/><rect width="6" height="6" x="120" y="138" class="st0" shape-rendering="optimizeSpeed"/><rect width="6" height="6" x="144" y="138" class="st0" shape-rendering="optimizeSpeed"/><rect width="6" height="6" x="150" y="138" class="st0" shape-rendering="optimizeSpeed"/><rect width="6" height="6" x="168" y="138" class="st0" shape-rendering="optimizeSpeed"/><rect width="6" height="6" y="144" class="st0" shape-rendering="optimizeSpeed"/><rect width="6" height="6" x="12" y="144" class="st0" shape-rendering="optimizeSpeed"/><rect width="6" height="6" x="18" y="144" class="st0" shape-rendering="optimizeSpeed"/><rect width="6" height="6" x="24" y="144" class="st0" shape-rendering="optimizeSpeed"/><rect width="6" height="6" x="36" y="144" class="st0" shape-rendering="optimizeSpeed"/><rect width="6" height="6" x="54" y="144" class="st0" shape-rendering="optimizeSpeed"/><rect width="6" height="6" x="60" y="144" class="st0" shape-rendering="optimizeSpeed"/><rect width="6" height="6" x="66" y="144" class="st0" shape-rendering="optimizeSpeed"/><rect width="6" height="6" x="90" y="144" class="st0" shape-rendering="optimizeSpeed"/><rect width="6" height="6" x="102" y="144" class="st0" shape-rendering="optimizeSpeed"/><rect width="6" height="6" x="120" y="144" class="st0" shape-rendering="optimizeSpeed"/><rect width="6" height="6" x="126" y="144" class="st0" shape-rendering="optimizeSpeed"/><rect width="6" height="6" x="132" y="144" class="st0" shape-rendering="optimizeSpeed"/><rect width="6" height="6" x="138" y="144" class="st0" shape-rendering="optimizeSpeed"/><rect width="6" height="6" x="144" y="144" class="st0" shape-rendering="optimizeSpeed"/><rect width="6" height="6" x="156" y="144" class="st0" shape-rendering="optimizeSpeed"/><rect width="6" height="6" y="150" class="st0" shape-rendering="optimizeSpeed"/><rect width="6" height="6" x="12" y="150" class="st0" shape-rendering="optimizeSpeed"/><rect width="6" height="6" x="18" y="150" class="st0" shape-rendering="optimizeSpeed"/><rect width="6" height="6" x="24" y="150" class="st0" shape-rendering="optimizeSpeed"/><rect width="6" height="6" x="36" y="150" class="st0" shape-rendering="optimizeSpeed"/><rect width="6" height="6" x="48" y="150" class="st0" shape-rendering="optimizeSpeed"/><rect width="6" height="6" x="54" y="150" class="st0" shape-rendering="optimizeSpeed"/><rect width="6" height="6" x="60" y="150" class="st0" shape-rendering="optimizeSpeed"/><rect width="6" height="6" x="66" y="150" class="st0" shape-rendering="optimizeSpeed"/><rect width="6" height="6" x="78" y="150" class="st0" shape-rendering="optimizeSpeed"/><rect width="6" height="6" x="90" y="150" class="st0" shape-rendering="optimizeSpeed"/><rect width="6" height="6" x="96" y="150" class="st0" shape-rendering="optimizeSpeed"/><rect width="6" height="6" x="102" y="150" class="st0" shape-rendering="optimizeSpeed"/><rect width="6" height="6" x="114" y="150" class="st0" shape-rendering="optimizeSpeed"/><rect width="6" height="6" x="120" y="150" class="st0" shape-rendering="optimizeSpeed"/><rect width="6" height="6" x="126" y="150" class="st0" shape-rendering="optimizeSpeed"/><rect width="6" height="6" x="138" y="150" class="st0" shape-rendering="optimizeSpeed"/><rect width="6" height="6" x="144" y="150" class="st0" shape-rendering="optimizeSpeed"/><rect width="6" height="6" x="150" y="150" class="st0" shape-rendering="optimizeSpeed"/><rect width="6" height="6" x="168" y="150" class="st0" shape-rendering="optimizeSpeed"/><rect width="6" height="6" y="156" class="st0" shape-rendering="optimizeSpeed"/><rect width="6" height="6" x="12" y="156" class="st0" shape-rendering="optimizeSpeed"/><rect width="6" height="6" x="18" y="156" class="st0" shape-rendering="optimizeSpeed"/><rect width="6" height="6" x="24" y="156" class="st0" shape-rendering="optimizeSpeed"/><rect width="6" height="6" x="36" y="156" class="st0" shape-rendering="optimizeSpeed"/><rect width="6" height="6" x="48" y="156" class="st0" shape-rendering="optimizeSpeed"/><rect width="6" height="6" x="54" y="156" class="st0" shape-rendering="optimizeSpeed"/><rect width="6" height="6" x="72" y="156" class="st0" shape-rendering="optimizeSpeed"/><rect width="6" height="6" x="84" y="156" class="st0" shape-rendering="optimizeSpeed"/><rect width="6" height="6" x="96" y="156" class="st0" shape-rendering="optimizeSpeed"/><rect width="6" height="6" x="102" y="156" class="st0" shape-rendering="optimizeSpeed"/><rect width="6" height="6" x="114" y="156" class="st0" shape-rendering="optimizeSpeed"/><rect width="6" height="6" x="138" y="156" class="st0" shape-rendering="optimizeSpeed"/><rect width="6" height="6" x="156" y="156" class="st0" shape-rendering="optimizeSpeed"/><rect width="6" height="6" x="168" y="156" class="st0" shape-rendering="optimizeSpeed"/><rect width="6" height="6" y="162" class="st0" shape-rendering="optimizeSpeed"/><rect width="6" height="6" x="36" y="162" class="st0" shape-rendering="optimizeSpeed"/><rect width="6" height="6" x="48" y="162" class="st0" shape-rendering="optimizeSpeed"/><rect width="6" height="6" x="54" y="162" class="st0" shape-rendering="optimizeSpeed"/><rect width="6" height="6" x="72" y="162" class="st0" shape-rendering="optimizeSpeed"/><rect width="6" height="6" x="78" y="162" class="st0" shape-rendering="optimizeSpeed"/><rect width="6" height="6" x="120" y="162" class="st0" shape-rendering="optimizeSpeed"/><rect width="6" height="6" x="144" y="162" class="st0" shape-rendering="optimizeSpeed"/><rect width="6" height="6" x="150" y="162" class="st0" shape-rendering="optimizeSpeed"/><rect width="6" height="6" x="162" y="162" class="st0" shape-rendering="optimizeSpeed"/><rect width="6" height="6" y="168" class="st0" shape-rendering="optimizeSpeed"/><rect width="6" height="6" x="6" y="168" class="st0" shape-rendering="optimizeSpeed"/><rect width="6" height="6" x="12" y="168" class="st0" shape-rendering="optimizeSpeed"/><rect width="6" height="6" x="18" y="168" class="st0" shape-rendering="optimizeSpeed"/><rect width="6" height="6" x="24" y="168" class="st0" shape-rendering="optimizeSpeed"/><rect width="6" height="6" x="30" y="168" class="st0" shape-rendering="optimizeSpeed"/><rect width="6" height="6" x="36" y="168" class="st0" shape-rendering="optimizeSpeed"/><rect width="6" height="6" x="48" y="168" class="st0" shape-rendering="optimizeSpeed"/><rect width="6" height="6" x="66" y="168" class="st0" shape-rendering="optimizeSpeed"/><rect width="6" height="6" x="96" y="168" class="st0" shape-rendering="optimizeSpeed"/><rect width="6" height="6" x="108" y="168" class="st0" shape-rendering="optimizeSpeed"/><rect width="6" height="6" x="114" y="168" class="st0" shape-rendering="optimizeSpeed"/><rect width="6" height="6" x="120" y="168" class="st0" shape-rendering="optimizeSpeed"/><rect width="6" height="6" x="126" y="168" class="st0" shape-rendering="optimizeSpeed"/><rect width="6" height="6" x="162" y="168" class="st0" shape-rendering="optimizeSpeed"/></svg>