<svg xmlns="http://www.w3.org/2000/svg" width="56" height="56" fill="none" viewBox="0 0 56 56"><path fill="url(#paint0_linear)" d="M27.7226 0C25.1452 0 23.0559 2.08934 23.0559 4.66667V13.4464L29.1726 24.0408C32.1079 22.1177 35.618 20.9993 39.3892 20.9993C43.6828 20.9993 47.6379 22.4489 50.7916 24.8854C50.9628 24.3999 51.0559 23.8775 51.0559 23.3333V4.66667C51.0559 2.08934 48.9666 0 46.3893 0H27.7226Z"/><path fill="url(#paint1_linear)" d="M49.4849 26.8255C46.7062 24.6378 43.2002 23.3326 39.3892 23.3326C36.0429 23.3326 32.9317 24.339 30.3415 26.0655L31.4584 28H46.3893C47.577 28 48.6612 27.5563 49.4849 26.8255Z"/><path fill="url(#paint2_linear)" d="M28.7641 28L28.4808 27.5092C28.3028 27.669 28.1283 27.8326 27.9576 28H28.7641Z"/><path fill="url(#paint3_linear)" d="M25.3562 27.3564C25.9543 26.675 26.6013 26.0376 27.2916 25.4496L23.0559 18.1131V23.3333C23.0559 25.047 23.9796 26.5449 25.3562 27.3564Z"/><path fill="url(#paint4_linear)" d="M13.6089 12.25C14.956 9.91667 18.3239 9.91667 19.671 12.25L32.8058 35C34.1529 37.3333 32.469 40.25 29.7747 40.25H3.50522C0.810918 40.25 -0.873018 37.3333 0.474133 35L13.6089 12.25Z"/><path fill="url(#paint5_linear)" d="M55.7226 39.6673C55.7226 48.688 48.4099 56.0007 39.3893 56.0007C30.3686 56.0007 23.0559 48.688 23.0559 39.6673C23.0559 30.6467 30.3686 23.334 39.3893 23.334C48.4099 23.334 55.7226 30.6467 55.7226 39.6673Z"/><defs><linearGradient id="paint0_linear" x1="23.056" x2="41.554" y1="28" y2="4.745" gradientUnits="userSpaceOnUse"><stop stop-color="#007BFF"/><stop offset="1" stop-color="#30BCF9"/></linearGradient><linearGradient id="paint1_linear" x1="23.056" x2="41.554" y1="28" y2="4.745" gradientUnits="userSpaceOnUse"><stop stop-color="#007BFF"/><stop offset="1" stop-color="#30BCF9"/></linearGradient><linearGradient id="paint2_linear" x1="23.056" x2="41.554" y1="28" y2="4.745" gradientUnits="userSpaceOnUse"><stop stop-color="#007BFF"/><stop offset="1" stop-color="#30BCF9"/></linearGradient><linearGradient id="paint3_linear" x1="23.056" x2="41.554" y1="28" y2="4.745" gradientUnits="userSpaceOnUse"><stop stop-color="#007BFF"/><stop offset="1" stop-color="#30BCF9"/></linearGradient><linearGradient id="paint4_linear" x1="-.277" x2="16.056" y1="15.167" y2="40.833" gradientUnits="userSpaceOnUse"><stop stop-color="#09FCCA"/><stop offset="1" stop-color="#03CEA4"/></linearGradient><linearGradient id="paint5_linear" x1="39.389" x2="31.223" y1="23.334" y2="50.167" gradientUnits="userSpaceOnUse"><stop stop-color="#FFCF2D"/><stop offset="1" stop-color="#FF9E2D"/></linearGradient></defs></svg>